<svg version="1.2" xmlns="http://www.w3.org/2000/svg" viewBox="0 0 24 24" width="24" height="24">
	<style>
		.s0 { fill: #ff0000 } 
	</style>
	<path class="s0" d="m18.92 6c-0.2-0.58-0.76-1-1.42-1h-11c-0.66 0-1.22 0.42-1.42 1l-2.08 6v8q0 0.2 0.08 0.38 0.07 0.19 0.21 0.33 0.14 0.14 0.33 0.21 0.18 0.08 0.38 0.08h1q0.2 0 0.38-0.08 0.19-0.07 0.33-0.21 0.14-0.14 0.21-0.33 0.08-0.18 0.08-0.38v-1h12v1q0 0.2 0.08 0.38 0.07 0.19 0.21 0.33 0.14 0.14 0.33 0.21 0.18 0.08 0.38 0.08h1q0.2 0 0.38-0.08 0.19-0.07 0.33-0.21 0.14-0.14 0.21-0.33 0.08-0.18 0.08-0.38v-8zm-1.42 10q-0.3 0-0.57-0.11-0.28-0.12-0.49-0.33-0.21-0.21-0.33-0.49-0.11-0.27-0.11-0.57 0-0.3 0.11-0.57 0.12-0.28 0.33-0.49 0.21-0.21 0.49-0.33 0.27-0.11 0.57-0.11 0.3 0 0.57 0.11 0.28 0.12 0.49 0.33 0.21 0.21 0.33 0.49 0.11 0.27 0.11 0.57 0 0.3-0.11 0.57-0.12 0.28-0.33 0.49-0.21 0.21-0.49 0.33-0.27 0.11-0.57 0.11zm-11 0q-0.3 0-0.57-0.11-0.28-0.12-0.49-0.33-0.21-0.21-0.33-0.49-0.11-0.27-0.11-0.57 0-0.3 0.11-0.57 0.12-0.28 0.33-0.49 0.21-0.21 0.49-0.33 0.27-0.11 0.57-0.11 0.3 0 0.57 0.11 0.28 0.12 0.49 0.33 0.21 0.21 0.33 0.49 0.11 0.27 0.11 0.57 0 0.3-0.11 0.57-0.12 0.28-0.33 0.49-0.21 0.21-0.49 0.33-0.27 0.11-0.57 0.11zm-1.5-5l1.5-4.5h11l1.5 4.5"/>
</svg>